HIERARCHY
ROOT Hips
{
	OFFSET 0.000000 0.000000 0.000000
	CHANNELS 6 Xposition Yposition Zposition Zrotation Yrotation Xrotation 
	JOINT LHipJoint
	{
		OFFSET 0.000000 0.000000 0.000000
		CHANNELS 3 Zrotation Yrotation Xrotation
		JOINT LeftUpLeg
		{
			OFFSET 1.363060 -1.794630 0.839290
			CHANNELS 3 Zrotation Yrotation Xrotation
			JOINT LeftLeg
			{
				OFFSET 2.448110 -6.726130 0.000000
				CHANNELS 3 Zrotation Yrotation Xrotation
				JOINT LeftFoot
				{
					OFFSET 2.562200 -7.039590 0.000000
					CHANNELS 3 Zrotation Yrotation Xrotation
					JOINT LeftToeBase
					{
						OFFSET 0.157640 -0.433110 2.322550
						CHANNELS 3 Zrotation Yrotation Xrotation
						End Site
						{
							OFFSET 0.000000 0.000000 0.000000
						}
					}
				}
			}
		}
	}
	JOINT RHipJoint
	{
		OFFSET 0.000000 0.000000 0.000000
		CHANNELS 3 Zrotation Yrotation Xrotation
		JOINT RightUpLeg
		{
			OFFSET -1.305520 -1.794630 0.839290
			CHANNELS 3 Zrotation Yrotation Xrotation
			JOINT RightLeg
			{
				OFFSET -2.542530 -6.985550 0.000000
				CHANNELS 3 Zrotation Yrotation Xrotation
				JOINT RightFoot
				{
					OFFSET -2.568260 -7.056230 0.000000
					CHANNELS 3 Zrotation Yrotation Xrotation
					JOINT RightToeBase
					{
						OFFSET -0.164730 -0.452590 2.363150
						CHANNELS 3 Zrotation Yrotation Xrotation
						End Site
						{
							OFFSET 0.000000 0.000000 0.000000
						}
					}
				}
			}
		}
	}
	JOINT LowerBack
	{
		OFFSET 0.000000 0.000000 0.000000
		CHANNELS 3 Zrotation Yrotation Xrotation
		JOINT Spine
		{
			OFFSET 0.028270 2.035590 -0.193380
			CHANNELS 3 Zrotation Yrotation Xrotation
			JOINT Spine1
			{
				OFFSET 0.056720 2.048850 -0.042750
				CHANNELS 3 Zrotation Yrotation Xrotation
				JOINT Neck
				{
					OFFSET 0.000000 0.000000 0.000000
					CHANNELS 3 Zrotation Yrotation Xrotation
					JOINT Neck1
					{
						OFFSET -0.054170 1.746240 0.172020
						CHANNELS 3 Zrotation Yrotation Xrotation
						JOINT Head
						{
							OFFSET 0.104070 1.761360 -0.123970
							CHANNELS 3 Zrotation Yrotation Xrotation
							End Site
							{
								OFFSET 0.000000 0.000000 0.000000
							}
						}
					}
				}
				JOINT LeftShoulder
				{
					OFFSET 0.000000 0.000000 0.000000
					CHANNELS 3 Zrotation Yrotation Xrotation
					JOINT LeftArm
					{
						OFFSET 3.362410 1.200890 -0.311210
						CHANNELS 3 Zrotation Yrotation Xrotation
						JOINT LeftForeArm
						{
							OFFSET 4.983000 -0.000000 -0.000000
							CHANNELS 3 Zrotation Yrotation Xrotation
							JOINT LeftHand
							{
								OFFSET 3.483560 -0.000000 -0.000000
								CHANNELS 3 Zrotation Yrotation Xrotation
								JOINT LeftFingerBase
								{
									OFFSET 0.000000 0.000000 0.000000
									CHANNELS 3 Zrotation Yrotation Xrotation
									JOINT LeftHandIndex1
									{
										OFFSET 0.715260 -0.000000 -0.000000
										CHANNELS 3 Zrotation Yrotation Xrotation
										End Site
										{
											OFFSET 0.000000 0.000000 0.000000
										}
									}
								}
								JOINT LThumb
								{
									OFFSET 0.000000 0.000000 0.000000
									CHANNELS 3 Zrotation Yrotation Xrotation
									End Site
									{
										OFFSET 0.000000 0.000000 0.000000
									}
								}
							}
						}
					}
				}
				JOINT RightShoulder
				{
					OFFSET 0.000000 0.000000 0.000000
					CHANNELS 3 Zrotation Yrotation Xrotation
					JOINT RightArm
					{
						OFFSET -3.136600 1.374050 -0.404650
						CHANNELS 3 Zrotation Yrotation Xrotation
						JOINT RightForeArm
						{
							OFFSET -5.241900 -0.000000 -0.000000
							CHANNELS 3 Zrotation Yrotation Xrotation
							JOINT RightHand
							{
								OFFSET -3.444170 -0.000000 -0.000000
								CHANNELS 3 Zrotation Yrotation Xrotation
								JOINT RightFingerBase
								{
									OFFSET 0.000000 0.000000 0.000000
									CHANNELS 3 Zrotation Yrotation Xrotation
									JOINT RightHandIndex1
									{
										OFFSET -0.622530 -0.000000 -0.000000
										CHANNELS 3 Zrotation Yrotation Xrotation
										End Site
										{
											OFFSET 0.000000 0.000000 0.000000
										}
									}
								}
								JOINT RThumb
								{
									OFFSET 0.000000 0.000000 0.000000
									CHANNELS 3 Zrotation Yrotation Xrotation
									End Site
									{
										OFFSET 0.000000 0.000000 0.000000
									}
								}
							}
						}
					}
				}
			}
		}
	}
}
MOTION
Frames: 4
Frame Time: 0.008333
11.485431 16.730755 1.819962 4.864828 -86.017594 21.159930 -9.556716 -0.615353 1.293816 -12.954202 -3.956284 -56.135006 -2.002028 1.908057 31.906546 0.018801 -0.743280 4.706195 0.167200 0.000000 -37.563600 8.545445 0.776910 -0.005595 12.511675 -3.857508 -60.272534 2.384083 -3.600632 35.143234 0.592385 3.260525 11.960291 0.611700 -0.000000 -74.492900 1.775164 -0.852627 0.259289 0.031915 -0.958207 -2.951365 -4.027151 -0.849449 -1.255479 2.556824 -3.958426 1.710188 -2.188180 -0.279316 2.423200 0.000000 0.000000 0.000000 14.624725 5.489619 -1.144806 -60.510137 -31.977526 0.911405 -178.982459 -58.776762 179.994255 1.196961 8.121977 0.079313 0.019611 0.479806 0.000000 0.000000 0.000000 0.000000 0.000000 0.000000 0.000000 -5.971725 -2.082903 -3.017981 55.583424 39.172670 -5.732628 -179.093840 64.393767 179.869592 -9.604494 8.739575 -0.815080 0.071418 -0.862728 -0.000000 0.000000 0.000000 0.000000 0.000000 0.000000 0.000000 
11.343912 16.406047 1.792240 3.758476 -85.895827 22.149691 -9.460031 -0.836014 1.211723 -12.584471 -4.772777 -58.278491 -1.790402 2.297399 38.069140 0.277240 0.046753 -1.479384 0.226800 0.000000 -31.811300 8.454241 0.980358 -0.050695 12.164966 -2.899454 -62.045469 2.024624 -4.011712 40.864057 0.370419 2.528440 6.211181 0.199900 -0.000000 -71.419200 1.687261 -0.878460 0.448337 0.003921 -0.975637 -2.969923 -4.086476 -0.866132 -1.466062 2.761788 -3.722550 1.698985 -2.209547 -0.280217 2.418514 0.000000 0.000000 0.000000 14.639957 5.080780 -1.098259 -61.350484 -31.399089 1.456811 -179.026884 -59.341036 179.990802 1.483819 8.139771 0.099273 0.011437 0.481392 0.000000 0.000000 0.000000 0.000000 0.000000 0.000000 0.000000 -5.674496 -1.664854 -2.928026 56.708480 38.419581 -4.861354 -179.122652 64.856750 179.869598 -9.616640 8.861120 -0.826338 0.070535 -0.862488 -0.000000 0.000000 0.000000 0.000000 0.000000 0.000000 0.000000 
11.205882 16.079412 1.763051 2.884012 -85.744401 22.940580 -9.387991 -1.086279 1.121275 -12.193908 -5.615222 -60.521121 -1.561670 2.709785 44.388441 0.591570 0.870166 -7.466060 0.085701 -0.000000 -26.412300 8.377514 1.214849 -0.102732 11.838638 -1.960008 -63.884785 1.663985 -4.401683 46.703383 0.087467 1.749538 0.394799 -0.049100 -0.000000 -67.907100 1.602170 -0.915244 0.653537 -0.024701 -1.004315 -2.981404 -4.154490 -0.893953 -1.667110 2.959434 -3.518824 1.658319 -2.227883 -0.280505 2.404974 0.000000 0.000000 0.000000 14.615385 4.720358 -1.043268 -62.117066 -30.884714 1.989775 -179.067656 -59.993669 179.987464 1.752759 8.070545 0.116735 0.003861 0.486155 0.000000 0.000000 0.000000 0.000000 0.000000 0.000000 0.000000 -5.377543 -1.282009 -2.845607 57.933492 37.658763 -3.954305 -179.148343 65.425702 179.869576 -9.621341 9.022419 -0.840298 0.068452 -0.862278 -0.000000 0.000000 0.000000 0.000000 0.000000 0.000000 0.000000 
11.071497 15.755764 1.732863 2.234293 -85.574634 23.559120 -9.348160 -1.357121 1.027714 -11.786459 -6.471389 -62.812908 -1.302205 3.134107 50.660624 0.942655 1.767212 -12.957115 -0.231600 0.000000 -22.084400 8.320216 1.469005 -0.158069 11.538246 -1.032229 -65.758900 1.298837 -4.769485 52.494634 -0.251215 0.878371 -5.204388 -0.121800 0.000000 -64.264000 1.524914 -0.959152 0.868161 -0.053995 -1.040833 -2.985018 -4.234688 -0.929251 -1.850011 3.152035 -3.360831 1.581521 -2.246949 -0.280280 2.380431 0.000000 0.000000 0.000000 14.522524 4.417351 -0.976794 -62.809981 -30.438139 2.521560 -179.098503 -60.753329 179.984363 1.990101 7.922858 0.130301 -0.003180 0.493453 0.000000 0.000000 0.000000 0.000000 0.000000 0.000000 0.000000 -5.058679 -0.949008 -2.768251 59.264987 36.897718 -2.995455 -179.175196 66.120916 179.869766 -9.603102 9.223896 -0.855561 0.064981 -0.861771 -0.000000 0.000000 0.000000 0.000000 0.000000 0.000000 0.000000 
